Miley Cyrus - Can't Be Tamed HD Music Video

Screenshot                   :

General
Complete name                    : Can't Be Tamed
Format                           : MPEG-4
Format profile                   : Base Media / Version 2
Codec ID                         : mp42
File size                        : 99.3 MiB
Duration                         : 3mn 49s
Overall bit rate                 : 3 637 Kbps
Encoded date                     : UTC 2010-05-04 21:08:36
Tagged date                      : UTC 2010-05-04 21:08:36

Video
ID                               : 2
Format                           : AVC
Format/Info                      : Advanced Video Codec
Format profile                   : High@L4.0
Format settings, CABAC           : Yes
Format settings, ReFrames        : 3 frames
Codec ID                         : avc1
Codec ID/Info                    : Advanced Video Coding
Duration                         : 3mn 49s
Bit rate mode                    : Variable
Bit rate                         : 3 498 Kbps
Maximum bit rate                 : 9 666 Kbps
Width                            : 1 920 pixels
Height                           : 1 080 pixels
Display aspect ratio             : 16:9
Frame rate mode                  : Constant
Frame rate                       : 24.000 fps
Color space                      : YUV
Chroma subsampling               : 4:2:0
Bit depth                        : 8 bits
Scan type                        : Progressive
Bits/(Pixel*Frame)               : 0.070
Stream size                      : 95.6 MiB (96%)
Title                            : (C) 2007 Google Inc. v08.13.2007.
Encoded date                     : UTC 2010-05-04 21:08:36
Tagged date                      : UTC 2010-05-04 21:08:37

Audio
ID                               : 1
Format                           : AAC
Format/Info                      : Advanced Audio Codec
Format version                   : Version 4
Format profile                   : LC
Format settings, SBR             : No
Codec ID                         : 40
Duration                         : 3mn 49s
Bit rate mode                    : Variable
Bit rate                         : 136 Kbps
Maximum bit rate                 : 241 Kbps
Channel(s)                       : 2 channels
Channel positions                : Front: L R
Sampling rate                    : 44.1 KHz
Stream size                      : 3.72 MiB (4%)
Title                            : (C) 2007 Google Inc. v08.13.2007.
Encoded date                     : UTC 2010-05-04 21:08:36
Tagged date                      : UTC 2010-05-04 21:08:37